<svg xmlns="http://www.w3.org/2000/svg" enable-background="new 0 0 140 140" viewBox="0 0 140 140">
    <path
        d="M56.7,63.4c-0.1,0-0.1-0.1-0.2-0.1c0-0.1,0.1-0.2,0.1-0.2c1,0,2-0.1,3-0.3c0.1,0,0.2,0,0.2,0.1c0,0.1,0,0.2-0.1,0.2     C58.8,63.3,57.7,63.4,56.7,63.4C56.7,63.4,56.7,63.4,56.7,63.4z M70.3,54.7c0-0.1,0.1-0.1,0.2-0.1c0.1,0,0.1,0.1,0.1,0.2     C70,56,67.4,60.4,70.3,54.7z M41.5,55.2c-0.5-0.9-0.9-1.9-1.1-2.8c0-0.1,0-0.2,0.1-0.2c0.1,0,0.2,0,0.2,0.1     c0.2,0.9,0.6,1.9,1.1,2.7c0,0.1,0,0.2-0.1,0.2C41.6,55.3,41.5,55.2,41.5,55.2z M41.5,52c-0.1,0-0.1-0.1-0.1-0.1     c0-0.1,0-0.2,0.1-0.2c1-0.2,2.1-0.6,2.8-0.9c0.1,0,0.2,0,0.2,0.1c0,0.1,0,0.2-0.1,0.2C42.5,52,41.6,52,41.5,52z M71.6,51     c0.1-0.4,0.1-0.8,0.2-1.3c0-0.5,0.1-1,0.1-1.7c0-0.1,0.1-0.1,0.2-0.1c0,0,0,0,0,0c0.1,0,0.1,0.1,0.1,0.2c0,0.5,0,1.1-0.1,1.7     c0,0.4-0.1,0.9-0.2,1.3C71.9,51.2,71.6,51.2,71.6,51z M37.7,50.8c-0.6-0.6-1.1-1.5-1.5-2.6c0-0.1,0-0.2,0.1-0.2     c0.1,0,0.2,0,0.2,0.1c0.4,1.1,0.9,1.9,1.5,2.5c0.1,0.1,0.1,0.2,0,0.2C37.9,50.8,37.8,50.8,37.7,50.8z M47.5,48.8     c-0.1-0.1-0.1-0.2,0-0.2c0.7-0.8,1.1-1.7,1.2-2.6c0-0.1,0.1-0.1,0.2-0.1c0.1,0,0.1,0.1,0.1,0.2c-0.1,0.9-0.5,1.9-1.3,2.8     C47.7,48.9,47.6,48.9,47.5,48.8z M40.1,48.3c0.1-1,0.4-2,0.9-2.9c0-0.1,0.1-0.1,0.2-0.1c0.1,0,0.1,0.1,0.1,0.2     c-0.5,0.8-0.8,1.8-0.9,2.8C40.4,48.6,40.1,48.5,40.1,48.3z M35.1,44.3l-0.7-2.9c0-0.1,0-0.2,0.1-0.2c0.1,0,0.2,0,0.2,0.1l0.7,2.9     c0,0.1,0,0.2-0.1,0.2C35.2,44.4,35.1,44.4,35.1,44.3z M84.3,44c-0.5-1-1.1-1.8-1.7-2.4c-0.1-0.1-0.1-0.2,0-0.2     c0.1-0.1,0.2-0.1,0.2,0c0.6,0.7,1.2,1.5,1.7,2.5c0,0.1,0,0.2-0.1,0.2C84.5,44.1,84.4,44.1,84.3,44z M46.9,43     c-0.8-0.3-1.8-0.4-2.8,0c-0.1,0-0.2,0-0.2-0.1c0-0.1,0-0.2,0.1-0.2c1-0.4,2.1-0.3,3,0c0.1,0,0.1,0.1,0.1,0.2     C47.1,43,47,43,46.9,43z" />
    <path fill="#fbccb3"
        d="M95,44c-0.4,0.2-0.6,0.7,1,2.1c0.1,0.1,0.3,0.3,0.3,0.4c1,3.7-0.7,13.9,5,14.6c2.3,0.3,8-8.4,8-8.4     c-0.5-1-4.6-3.1-6-2.7l-1.3,2.6l-0.9-6.8c0,0-0.3-1.8-0.7-2.2c-0.4-0.4-0.9-0.6-0.9-0.6l-0.8,0.5c0,0-1-1.3-1.4-1.6     c-0.3-0.2-1,0-0.8,0.7c-0.3-0.2-1,0-0.8,0.6C95.3,43.2,94.8,43.5,95,44z" />
    <path fill="#fff" d="M87.1,45.1l-1-0.3c-0.5-0.1-0.9,0.2-1,0.6l-0.4,1.6c-0.2,0.9,0.3,1.8,1.2,2l0.4,0.1L87.1,45.1z" />
    <path
        d="M86.2,49.3C86.2,49.3,86.2,49.3,86.2,49.3l-0.4-0.1C84.8,49,84.3,48,84.5,47l0.4-1.6c0.1-0.5,0.7-0.9,1.2-0.7l1,0.3      c0.1,0,0.1,0.1,0.1,0.2l-0.9,4C86.3,49.2,86.3,49.3,86.2,49.3C86.2,49.3,86.2,49.3,86.2,49.3z M85.2,45.5l-0.4,1.6      c-0.2,0.8,0.3,1.6,1.1,1.8l0.2,0.1l0.9-3.7L86.1,45C85.7,44.9,85.3,45.1,85.2,45.5z" />
    <path fill="#178afc" d="M75,22.4L68.4,48c5.3-1.8,12.9-5.1,17.6-5.3l2.2-8.5C84.2,31.6,78.7,26.5,75,22.4z" />
    <path fill="#fec75a"
        d="M88.2,34.1l-2.2,8.6c-0.2,0.6,0.2,1.2,0.8,1.4l6.9,1.8c0.6,0.2,1.2-0.2,1.4-0.8l2.2-8.6     c0.2-0.6-0.2-1.2-0.8-1.4l-6.9-1.8C88.9,33.1,88.3,33.5,88.2,34.1z" />
    <path fill="#f3f1fc" d="M96.8,38.1c1.6,0.4,2.4,1.9,2.1,3.4c-0.4,1.5-1.9,2.4-3.5,2L96.8,38.1z" />
    <path fill="#178afc"
        d="M96.8,38l-1.4,5.4c1.6,0.4,3-0.5,3.4-1.8c0-0.1,0-0.1,0.1-0.2l0,0C99.3,40.1,98.5,38.5,96.8,38z" />
    <path fill="#178afc"
        d="M83.8,55.1c-1.3-0.7-1.8-2.3-1-3.6l1.7-2.5l3-4.7l5.1,1.3L87,54.2C86.3,55.3,84.9,55.6,83.8,55.1L83.8,55.1z     " />
    <path fill="#fff"
        d="M75.2,31.2c-0.5,2.7-1.2,5.6-2.1,8.3c-1.6,5.1-3.6,8.6-4.7,8.4c-1.4-0.3-1-6.2,0.8-13.3     c1.8-7.1,4.4-12.6,5.8-12.3C76,22.6,76.1,26.2,75.2,31.2z" />
    <path fill="#fec75a"
        d="M75.2,31.2c-0.5,2.7-1.2,5.6-2.1,8.3c-2.1-0.7-3.4-2.8-3-4.9C70.5,32.4,72.8,30.9,75.2,31.2z" />
    <path
        d="M68.5,48.1c0,0-0.1,0-0.1,0c-2.3-0.4,0.1-11.2,0.7-13.5c3.8-14.7,8.8-17.1,6.3-3.4c-0.5,2.6-1.2,5.5-2.1,8.4     C71.9,43.6,69.9,48.1,68.5,48.1z M74.9,22.5c-1.2,0-3.6,4.8-5.5,12.2c-0.7,2.6-2.7,12.7-0.9,13.1c0,0,0,0,0.1,0     c0.9,0,2.6-2.8,4.4-8.3c0.9-2.8,1.6-5.7,2.1-8.3l0,0C76,25.7,75.7,22.7,74.9,22.5C74.9,22.5,74.9,22.5,74.9,22.5z" />
    <path
        d="M67.6,32.2L66,29.4c0-0.1,0-0.2,0.1-0.2c0.1,0,0.2,0,0.2,0.1l1.6,2.8c0,0.1,0,0.2-0.1,0.2C67.7,32.3,67.6,32.3,67.6,32.2     z" />
    <path fill="#fff"
        d="M94.6,38.3l-5-1.2c-0.1,0-0.1-0.1-0.1-0.2c0-0.1,0.1-0.1,0.2-0.1l5,1.2c0.1,0,0.1,0.1,0.1,0.2     C94.8,38.2,94.7,38.3,94.6,38.3z" />
    <path fill="#fff"
        d="M94.1,40.3l-5-1.2C89,39.1,88.9,39,89,39c0-0.1,0.1-0.1,0.2-0.1l5,1.2c0.1,0,0.1,0.1,0.1,0.2     C94.2,40.3,94.1,40.3,94.1,40.3z" />
    <path fill="#fff"
        d="M93.5,42.3l-5-1.2c-0.1,0-0.1-0.1-0.1-0.2c0-0.1,0.1-0.1,0.2-0.1l5,1.2c0.1,0,0.1,0.1,0.1,0.2     C93.7,42.3,93.6,42.3,93.5,42.3z" />
    <path
        d="M64.6,34.7l-3.1-0.9c-0.1,0-0.1-0.1-0.1-0.2c0-0.1,0.1-0.1,0.2-0.1l3.1,0.9c0.1,0,0.1,0.1,0.1,0.2     C64.8,34.6,64.7,34.7,64.6,34.7z" />
    <path
        d="M62.1,39.1c0-0.1,0-0.2,0.1-0.2l2.8-1.6c0.1,0,0.2,0,0.2,0.1c0,0.1,0,0.2-0.1,0.2l-2.8,1.6     C62.2,39.2,62.1,39.1,62.1,39.1z" />
    <path fill="#fbccb3"
        d="M103.2,46.2v1.7c0,1.1,0.9,2.1,2.1,2.1c0.6,0,1.1-0.2,1.5-0.6c0.4-0.4,0.6-0.9,0.6-1.5v-3.3     C106.5,45.9,104.8,46.6,103.2,46.2z" />
    <path fill="#fff" d="M107.8,49.5c0.5-0.3,1.7-2.2-0.3-2.3c-2-0.1-5.5,2.1-5.5,2.1S106.6,50.2,107.8,49.5z" />
    <path
        d="M102,49.4c-0.1,0-0.2-0.2,0-0.3c1.3-0.9,4-2.2,5.6-2.1c1.9,0.1,1.4,2,0.4,2.6C106.8,50.3,103.2,49.6,102,49.4z      M102.4,49.2c1.1,0.2,4.4,0.8,5.4,0.2l0,0c0.5-0.3,1.5-2-0.3-2C106,47.2,103.7,48.4,102.4,49.2z" />
    <path fill="#fbccb3"
        d="M99.7,42c0,0.3,0.2,0.4,0.6,0.5c0,3.4,4.1,5,6.5,2.7c1.5-1.6,1-3.4,1.1-4.4c0-2.1-1.7-3.8-3.8-3.8     c-2.1,0-3.8,1.7-3.8,3.8l0,0.8C99.9,41.6,99.7,41.7,99.7,42z" />
    <path fill="#231f24"
        d="M96.9,60.6c2,1.2,3.5,2.4,3.2,2.8c-0.3,0.4-2.2-0.2-4.2-1.3c-2-1.2-3.4-2.4-3.1-2.8     C93,58.9,94.9,59.5,96.9,60.6z" />
    <path
        d="M92.6,59.2c0.5-0.6,2.9,0.4,4.4,1.3c0.8,0.5,3.8,2.3,3.2,3C99.4,64.6,91.7,60.3,92.6,59.2z M93.1,59.3     c-0.1,0-0.2,0-0.3,0.1c-0.3,0.5,2.3,2.2,3.1,2.6c2.2,1.2,3.9,1.6,4,1.4c0,0,0,0,0-0.1c-0.1-0.4-1.2-1.4-3.1-2.5h0     C95.1,59.7,93.6,59.3,93.1,59.3z" />
    <path fill="#fbccb3"
        d="M84.5,52.9c-0.4,0.2-0.6,0.7,1,2.1c0.1,0.1,0.3,0.3,0.3,0.4c1,3.7-0.7,14.2,5,14.9c2.3,0.3,8-8.4,8-8.4     c-0.5-1-4.6-3.1-6-2.7l-1.3,2.6l-0.9-7.1c0,0-0.3-1.8-0.7-2.2c-0.4-0.4-1.2-0.8-1.2-0.8l-0.5,0.7c0,0-1-1.3-1.4-1.6     c-0.3-0.2-1,0-0.8,0.7c-0.3-0.2-1,0-0.8,0.6C84.8,52.1,84.3,52.3,84.5,52.9z" />
    <path fill="#fbccb3" d="M116.2,73.9l-14.4,38.2c-10.4-4.1-10.3-4.1-11.1-4.3l10.9-30.4L116.2,73.9z" />
    <polygon points="108.2 95.2 116.2 73.9 101.6 77.4 95.2 95.2" />
    <path fill="#fbccb3"
        d="M117.4,66.8l-0.7,5.3c-0.5,3.8-3.7,6.6-7.5,6.7l-14.4,0.3c18.9,10.2,12.4,6.7,13.8,7.5l-3.7,9.3     c0,0-7.1-3.1-12.6-6.4c-5.2-3.1-10.6-6.8-11.7-9.8c-0.4-0.9-0.3-2.3,0.1-3.6c0.4-1.7,1.2-3.3,2-4c3.4-2.9,17.1-5.5,17.1-5.5     L117.4,66.8z" />
    <path
        d="M117.4,66.8l-0.7,5.3c-0.5,3.8-3.7,6.6-7.5,6.7l-14.4,0.3l3.6,1.9l-6,8.5c-5.2-3.1-10.6-6.8-11.7-9.8     c-0.3-0.9-0.2-2.3,0.1-3.6c0.4-1.7,1.2-3.3,2-4c3.4-2.9,17.1-5.5,17.1-5.5L117.4,66.8z" />
    <path fill="#fff"
        d="M101,79.2c-0.1,0-0.1-0.1-0.2-0.1c0-0.1,0.1-0.2,0.1-0.2l6.4-0.2c0.1,0,0.2,0.1,0.2,0.1     c0,0.1-0.1,0.2-0.1,0.2C107.2,79,100.9,79.2,101,79.2z" />
    <path fill="#fbccb3"
        d="M83.8,112.5l15.4,5.7c0.2,0.1,0.3,0,0.4-0.2l2.3-6l-10.2-4c-3-1.2-6.3,0.2-7.6,3.1l-0.4,1     C83.5,112.3,83.6,112.5,83.8,112.5z" />
    <path fill="#fbccb3"
        d="M109.2,104.6l5.7-15.4c0.1-0.2,0-0.3-0.2-0.4l-6-2.3l-4,10.2c-1.2,3,0.2,6.3,3.1,7.6l1,0.4     C108.9,104.8,109.1,104.8,109.2,104.6z" />
    <path fill="#fff"
        d="M108.6,86.7c-8.9-4.9-8.9-4.6-8.7-4.9c0-0.1,0.1-0.1,0.2-0.1c8.9,4.9,8.9,4.6,8.7,4.9      C108.8,86.7,108.7,86.7,108.6,86.7z" />
    <path
        d="M104.3,99.5c-0.1,0-0.1-0.1-0.1-0.1c-0.3-1.4,0.8-3.9,1.7-5.9c0-0.1,0.1-0.1,0.2-0.1c0.1,0,0.1,0.1,0.1,0.2     c-0.7,1.8-1.9,4.4-1.7,5.8C104.5,99.4,104.4,99.5,104.3,99.5C104.3,99.5,104.3,99.5,104.3,99.5z" />
    <path
        d="M91.5,108.3c0,0-2.1-0.7-3.3-0.4c-0.1,0-0.2,0-0.2-0.1c0-0.1,0-0.2,0.1-0.2c1.3-0.3,3.4,0.4,3.4,0.4     C91.8,108.1,91.7,108.4,91.5,108.3z" />
    <path fill="#fff"
        d="M100,66.6l0.2-3.3l0,0c-0.2-0.5-1.4-1.6-3.2-2.6c-1.7-1-3.3-1.5-3.9-1.5l-0.1-0.1c0,0,4-5.9,5.6-7.5     c2-2,5.8-4.2,11.2-2.2c5.4,2,7.8,17.4,7.8,17.4L100,66.6z" />
    <path
        d="M117.4,66.9C117.4,66.9,117.4,66.9,117.4,66.9L100,66.7c-0.1,0-0.2-0.1-0.1-0.2l0.2-3.3c-0.1-0.1-0.2-0.9-3.2-2.6     c-3.1-1.7-3.8-1.4-3.9-1.5l-0.1-0.1c-0.1,0-0.1-0.1-0.1-0.2c0.2-0.2,4-5.9,5.7-7.6c1.8-1.7,5.6-4.3,11.3-2.2     c5.4,2,7.8,16.9,7.9,17.5C117.6,66.8,117.5,66.9,117.4,66.9z M100.1,66.4l17.1,0.2c-0.3-1.7-2.7-15.3-7.6-17.1     c-5.6-2-9.3,0.5-11,2.2c-1.5,1.5-4.9,6.4-5.5,7.3c0,0,0,0,0,0c0.8,0,2.3,0.6,3.9,1.5c1.7,1,3,2,3.2,2.6l0,0     C100.4,63.2,100.3,63.2,100.1,66.4z" />
    <path fill="#fbccb3" d="M100.6,44.1c0,0-0.9-1.7-2.5-1.8c-2.1-0.2-0.2,1.2-0.2,1.2l1.2,1.1" />
    <path
        d="M98.9,44.7l-1.2-1.1c-1.1-0.8-1.2-1.6,0.3-1.5c1.7,0.1,2.6,1.8,2.6,1.9c0.1,0.2-0.2,0.3-0.3,0.1c0,0-0.8-1.6-2.4-1.7     c-1-0.1-1.2,0.1-0.1,0.9l1.2,1.1c0.1,0.1,0.1,0.2,0,0.2C99.1,44.8,99,44.8,98.9,44.7z" />
    <path
        d="M100.1,63.4C100.1,63.4,100.1,63.4,100.1,63.4c-0.1-0.1-0.2-0.1-0.1-0.2l2.4-4.5c0-0.1,0.1-0.1,0.2-0.1     c0.1,0,0.1,0.1,0.1,0.2C100.2,63.4,100.3,63.4,100.1,63.4z" />
    <path fill="#231f24"
        d="M102.6,42.7c0.2,0.3,0.6,0.4,0.6,0.1c0-1.6,0.6-1.3,0.9-1c0.3,0.3,0.5,2.5,0.4,3.8c0,0.1,0.1,0.2,0.2,0.2     h2.4c1.7-1,2.8-2.9,2.8-5c0-0.2,0-0.5,0-0.7c-0.2-5.3-9.8-5.3-10.8-3.4c-1,1.9,0.3,3.4,1.2,3.8c0.5,0.2,2.1,0.5,2.1,0.5     C102.3,41.7,102.3,42.1,102.6,42.7z" />
    <path fill="#fbccb3" d="M103.2,46.2c0,0,0.7,0.3,1.7,0.1" />
    <path
        d="M103.1,46.3c-0.1,0-0.1-0.1-0.1-0.2s0.1-0.1,0.2-0.1c0,0,0.7,0.3,1.6,0.1c0.2,0,0.3,0.2,0.1,0.3     C104.2,46.6,103.5,46.5,103.1,46.3z" />
    <line x1="91.5" x2="91" y1="61.7" y2="62.9" fill="#fbccb3" />
    <path
        d="M90.9,63.1c-0.1,0-0.1-0.1-0.1-0.2l0.5-1.2c0-0.1,0.1-0.1,0.2-0.1c0.1,0,0.1,0.1,0.1,0.2L91.1,63     C91.1,63,91,63.1,90.9,63.1z" />
    <path fill="#fbccb3" d="M86,51.5c0.1,0.2,0.2,0.4,0.4,0.6" />
    <path
        d="M86.3,52.2c0,0-0.1,0-0.1-0.1c-0.1-0.2-0.3-0.4-0.4-0.6c0-0.1,0-0.2,0.1-0.2c0.1,0,0.2,0,0.2,0.1     c0.1,0.2,0.2,0.4,0.3,0.5C86.5,52.1,86.5,52.2,86.3,52.2C86.4,52.2,86.4,52.2,86.3,52.2z" />
    <path fill="#fbccb3" d="M85.1,52.2c0.2,0.4,0.5,0.8,0.9,1" />
    <path
        d="M86.1,53.3C86.1,53.3,86,53.3,86.1,53.3c-0.5-0.3-0.8-0.6-1.1-1.1c0-0.1,0-0.2,0.1-0.2s0.2,0,0.2,0.1     c0.2,0.4,0.5,0.8,0.9,1c0.1,0,0.1,0.1,0.1,0.2C86.2,53.3,86.1,53.3,86.1,53.3z" />
    <path fill="#fbccb3" d="M84.5,52.9c0.1,0.3,0.3,0.5,0.5,0.7" />
    <path
        d="M85.1,53.8c0,0-0.1,0-0.1,0c-0.2-0.2-0.4-0.5-0.6-0.8c0-0.1,0-0.2,0.1-0.2c0.1,0,0.2,0,0.2,0.1c0.1,0.3,0.3,0.5,0.5,0.7     c0.1,0.1,0.1,0.2,0,0.2C85.1,53.8,85.1,53.8,85.1,53.8z" />
    <path fill="#fff"
        d="M73.3,58.9v33.4c0,2.1-1.7,3.8-3.8,3.8H26.4c-2.1,0-3.8-1.7-3.8-3.8V58.9c0-2.1,1.7-3.8,3.8-3.8h43.1     C71.6,55.1,73.3,56.8,73.3,58.9z" />
    <path
        d="M69.5,96.2H26.4c-2.2,0-3.9-1.8-3.9-3.9V58.9c0-2.2,1.8-3.9,3.9-3.9h43.1c2.2,0,3.9,1.8,3.9,3.9v33.4     C73.4,94.5,71.6,96.2,69.5,96.2z M26.4,55.3c-2,0-3.6,1.6-3.6,3.6v33.4c0,2,1.6,3.6,3.6,3.6h43.1c2,0,3.6-1.6,3.6-3.6V58.9     c0-2-1.6-3.6-3.6-3.6H26.4z" />
    <path fill="#178afc" d="M73.3,62.9v-4c0-2.1-1.7-3.8-3.8-3.8H26.4c-2.1,0-3.8,1.7-3.8,3.8v4H73.3z" />
    <path
        d="M73.3,63.1H22.6c-0.1,0-0.2-0.1-0.2-0.1v-4c0-2.2,1.8-3.9,3.9-3.9h43.1c2.2,0,3.9,1.8,3.9,3.9v4     C73.4,63,73.3,63.1,73.3,63.1z M22.7,62.8h50.4v-3.9c0-2-1.6-3.6-3.6-3.6H26.4c-2,0-3.6,1.6-3.6,3.6V62.8z" />
    <path fill="#fff"
        d="M28,59c0,0.8-0.6,1.4-1.3,1.4c-0.7,0-1.3-0.6-1.3-1.4c0-0.7,0.6-1.3,1.3-1.3C27.4,57.7,28,58.3,28,59z" />
    <path fill="#fff"
        d="M31.9,59c0,0.8-0.6,1.4-1.3,1.4c-0.7,0-1.3-0.6-1.3-1.4c0-0.7,0.6-1.3,1.3-1.3C31.3,57.7,31.9,58.3,31.9,59z     " />
    <path fill="#fff"
        d="M35.8,59c0,0.8-0.6,1.4-1.3,1.4c-0.7,0-1.3-0.6-1.3-1.4c0-0.7,0.6-1.3,1.3-1.3C35.2,57.7,35.8,58.3,35.8,59z     " />
    <path fill="#fff"
        d="M70.5,59L70.5,59c0,0.5-0.4,0.8-0.8,0.8H41c-0.5,0-0.8-0.4-0.8-0.8l0,0c0-0.5,0.4-0.8,0.8-0.8h28.7     C70.1,58.2,70.5,58.6,70.5,59z" />
    <path fill="#fedcee"
        d="M49.9,67.3v15.9c0,0.7-0.5,1.2-1.2,1.2H27c-0.7,0-1.2-0.5-1.2-1.2V67.3c0-0.7,0.5-1.2,1.2-1.2h21.7     C49.4,66,49.9,66.6,49.9,67.3z" />
    <path fill="#fedcee"
        d="M64.5,66.4v3c0,0.2-0.1,0.3-0.3,0.3H53.3c-0.2,0-0.3-0.1-0.3-0.3v-3c0-0.2,0.1-0.3,0.3-0.3h10.9     C64.4,66,64.5,66.2,64.5,66.4z" />
    <path d="M70.1,72.2H53c-0.1,0-0.2-0.1-0.2-0.1s0.1-0.1,0.2-0.1h17.1c0.1,0,0.2,0.1,0.2,0.1S70.2,72.2,70.1,72.2z" />
    <path d="M70.1,74.2H53c-0.1,0-0.2-0.1-0.2-0.1s0.1-0.1,0.2-0.1h17.1c0.1,0,0.2,0.1,0.2,0.1S70.2,74.2,70.1,74.2z" />
    <path d="M70.1,76.3H53c-0.1,0-0.2-0.1-0.2-0.1S52.9,76,53,76h17.1c0.1,0,0.2,0.1,0.2,0.1S70.2,76.3,70.1,76.3z" />
    <path d="M70.1,78.3H53c-0.1,0-0.2-0.1-0.2-0.1S52.9,78,53,78h17.1c0.1,0,0.2,0.1,0.2,0.1S70.2,78.3,70.1,78.3z" />
    <path d="M62.8,80.3H53c-0.1,0-0.2-0.1-0.2-0.1S52.9,80,53,80h9.8c0.1,0,0.2,0.1,0.2,0.1S62.9,80.3,62.8,80.3z" />
    <path fill="#fff"
        d="M44.2,80.1H31.5c-0.5,0-0.9-0.6-0.6-1l2.4-4.1c0.3-0.5,0.9-0.5,1.2,0l1.6,2.7l3.3-5.6c0.3-0.5,0.9-0.5,1.2,0     l4.2,7C45.1,79.5,44.8,80.1,44.2,80.1z" />
    <path fill="#fff"
        d="M37,71.7c0,0.8-0.6,1.4-1.5,1.4c-0.8,0-1.4-0.6-1.4-1.4c0-0.8,0.6-1.5,1.4-1.5C36.4,70.3,37,70.9,37,71.7z" />
    <path d="M49.7,87.2H25.8c-0.1,0-0.2-0.1-0.2-0.1s0.1-0.1,0.2-0.1h23.9c0.1,0,0.2,0.1,0.2,0.1S49.7,87.2,49.7,87.2z" />
    <path d="M49.7,89.3H25.8c-0.1,0-0.2-0.1-0.2-0.1s0.1-0.1,0.2-0.1h23.9c0.1,0,0.2,0.1,0.2,0.1S49.7,89.3,49.7,89.3z" />
    <path d="M49.7,91.3H25.8c-0.1,0-0.2-0.1-0.2-0.1s0.1-0.1,0.2-0.1h23.9c0.1,0,0.2,0.1,0.2,0.1S49.7,91.3,49.7,91.3z" />
    <path d="M39.5,93.3H25.8c-0.1,0-0.2-0.1-0.2-0.1s0.1-0.1,0.2-0.1h13.7c0.1,0,0.2,0.1,0.2,0.1S39.5,93.3,39.5,93.3z" />
    <path fill="#fec75a" d="M33.8,39.6c-0.3,0.1-0.3-0.1-2.4-2.3l2.4-1.4c0,0.1,0.4,3.8,0.3,3.6L33.8,39.6" />
    <path fill="#fec75a"
        d="M23.7,30.9l4.3,7.5c0.1,0.2,0.4,0.3,0.6,0.2l4.1-2L28,32.8c-0.1-0.1,0-0.3,0.2-0.3l7.8,2.7l1.9-0.9     c0.4-0.2,0.3-0.8-0.1-0.9l-13.5-3.2C23.8,30.2,23.5,30.5,23.7,30.9z" />
    <path fill="#edaf40"
        d="M28,32.8l4.7,3.9l1.1,2.6c0.1,0.3,0.5,0.3,0.6,0l1.5-4.1l-7.8-2.7C27.9,32.4,27.8,32.6,28,32.8z" />
    <path fill="#fff" d="M69.8,94c0,4.4-3.6,8-8,8c-4.4,0-8-3.6-8-8c0-4.4,3.6-8,8-8C66.2,86,69.8,89.6,69.8,94z" />
    <path
        d="M61.8,102.1c-4.5,0-8.1-3.6-8.1-8.1s3.6-8.1,8.1-8.1c4.5,0,8.1,3.6,8.1,8.1S66.3,102.1,61.8,102.1z M61.8,86.2     c-4.3,0-7.8,3.5-7.8,7.8s3.5,7.8,7.8,7.8c4.3,0,7.8-3.5,7.8-7.8S66.1,86.2,61.8,86.2z" />
    <path fill="#fec75a"
        d="M65.1,95l-3.3,2.5c-0.9,0.6-2.1,0-2.1-1v-5c0-1.1,1.2-1.7,2.1-1l3.3,2.5C65.8,93.5,65.8,94.5,65.1,95z" />
    <path
        d="M101.3,33.8l-1.8-1c-2.6,0.8-5.5-0.4-6.7-2.9c-2.1-4.2,1.6-9.1,6.4-8.1c4.3,1,5.9,6.3,2.8,9.5l0,2     C102,33.8,101.6,34,101.3,33.8z M99.5,32.6C99.5,32.6,99.6,32.6,99.5,32.6l1.9,1c0.1,0.1,0.3,0,0.3-0.2l0-2.1c0,0,0-0.1,0-0.1     c3-3,1.4-8.1-2.7-9c-4.4-1-8,3.6-6,7.6C94.3,32.2,96.9,33.4,99.5,32.6C99.5,32.6,99.5,32.6,99.5,32.6z" />
    <circle cx="97.9" cy="27.5" r="4.4" fill="#fedcee" />
    <path fill="#fff"
        d="M96.4,27.5c0,0.4-0.3,0.8-0.7,0.8c-0.4,0-0.8-0.3-0.8-0.7c0-0.4,0.3-0.8,0.7-0.8     C96,26.8,96.4,27.1,96.4,27.5z" />
    <path fill="#fff"
        d="M98.6,27.5c0,0.4-0.3,0.8-0.7,0.8c-0.4,0-0.8-0.3-0.8-0.7c0-0.4,0.3-0.8,0.7-0.8     C98.3,26.7,98.6,27,98.6,27.5z" />
    <path fill="#fff"
        d="M100.9,27.4c0,0.4-0.3,0.8-0.7,0.8c-0.4,0-0.8-0.3-0.8-0.7c0-0.4,0.3-0.8,0.7-0.8     C100.5,26.6,100.9,27,100.9,27.4z" />
    <path fill="#fbccb3" d="M102.6,42.8c0-0.6,0.5-1.1,1.1-1.1c0.6,0,1.1,0.5,1.1,1.1c0,0.6-0.5,1-1.1,1" />
    <path fill="#231f24"
        d="M103.7,44c-0.1,0-0.2-0.1-0.2-0.1s0.1-0.1,0.2-0.1c0.5,0,0.9-0.4,0.9-0.9c0-0.5-0.4-0.9-0.9-0.9     c-0.5,0-0.9,0.4-0.9,0.9c0,0.1-0.1,0.1-0.2,0.1s-0.2-0.1-0.2-0.1c0-0.7,0.5-1.2,1.2-1.2s1.2,0.5,1.2,1.2     C104.9,43.5,104.4,44,103.7,44z" />
    <path fill="#231f24"
        d="M103.9,43.1c-0.3,0-0.5-0.2-0.5-0.5c0-0.1,0.1-0.1,0.2-0.1c0.1,0,0.2,0.1,0.2,0.1c0,0.1,0.1,0.2,0.2,0.2     c0.1,0,0.2,0.1,0.2,0.1S104,43.1,103.9,43.1z" />
</svg>