<svg id="Layer_1" data-name="Layer 1" xmlns="http://www.w3.org/2000/svg" viewBox="0 0 92.38 108.41">
    <defs>
        <style>
            .cls-1 {
                fill: #f7941d;
            }
        </style>
    </defs>
    <path class="cls-1"
        d="M90.05,94.11a8.48,8.48,0,0,0-10.66-1.32l-4.77-5.17a37.11,37.11,0,0,0,0-52.89L71.7,37.59c5.57,5,9.09,13.62,9.76,21a32.84,32.84,0,0,1-9.76,26.1h0l0,0,0,0L66.9,80a26.51,26.51,0,0,0,0-37.62l4.8-4.78A33.59,33.59,0,0,0,51.21,28l.08-4.2a33.59,33.59,0,0,1,22.07,9.72l2.9-2.88a37.85,37.85,0,0,0-24.84-10.9l.09-2.93a8.46,8.46,0,1,0-3.31-.1l-.32,7a37.9,37.9,0,0,0-26.72,11l2.89,2.86a33.7,33.7,0,0,1,23.81-9.75h0v6.74a26.91,26.91,0,0,0-19,7.78l-4.83-4.78A33.09,33.09,0,0,0,21.8,82.27l-3.14,3.11A36,36,0,0,1,20,35.55l-3.15-3.14a40.52,40.52,0,0,0-1.34,56.13l-2,2A8.73,8.73,0,1,0,16,92.92l5.21-5.26A37.89,37.89,0,0,0,47.88,98.57V94.51a33.67,33.67,0,0,1-23.83-9.77h0l0,0,0,0L28.88,80a27,27,0,0,0,19,7.78v6.74a33.57,33.57,0,0,0,21.38-7.57l2.88,3a33.7,33.7,0,0,1-22.61,8.61v4.08A37.92,37.92,0,0,0,75,92.91l2,2.16a8.47,8.47,0,1,0,13-1ZM13,102a6,6,0,1,1,0-8.5A6,6,0,0,1,13,102ZM44.29,8.29a5.83,5.83,0,1,1,5.64,6A5.83,5.83,0,0,1,44.29,8.29ZM56.4,64.19a120.37,120.37,0,0,1-10.92,6.3,3.51,3.51,0,0,1-5.22-3c0-3.15,0-9.46,0-12.61a3.52,3.52,0,0,1,5.22-3c2.8,1.43,8.26,4.59,10.92,6.31A3.55,3.55,0,0,1,56.4,64.19Zm31.54,40a5.82,5.82,0,1,1,.2-8.23A5.84,5.84,0,0,1,87.94,104.16Z" />
</svg>