<svg xmlns="http://www.w3.org/2000/svg" fill-rule="evenodd" clip-rule="evenodd" image-rendering="optimizeQuality"
    shape-rendering="geometricPrecision" text-rendering="geometricPrecision" viewBox="0 0 13333.33 13333.33">
    <path fill="#373435"
        d="M2095.33 2969.7c0,-483.92 397.13,-881.04 881.05,-881.04l7393.91 0c483.92,0 881.05,397.12 881.05,881.04l0 4790.04 -1624.21 -1624.21 -237.09 -237.09c-128.54,-128.53 -338.2,-128.53 -466.73,0l-237.09 237.09 -429.51 429.5c-128.54,128.53 -338.2,128.53 -466.73,0l-2096.17 -2096.17 -237.09 -237.09c-128.54,-128.53 -338.2,-128.53 -466.73,0l-237.09 237.09 -2657.54 2657.54 0 -4156.7zm7030.1 492.65c294.55,0 533.33,238.78 533.33,533.33 0,294.55 -238.78,533.33 -533.33,533.33 -294.55,0 -533.33,-238.78 -533.33,-533.33 0,-294.55 238.78,-533.33 533.33,-533.33zm2125.91 5202.31l0 1698.96c0,483.92 -397.13,881.04 -881.05,881.04l-7393.91 0c-483.92,0 -881.05,-397.12 -881.05,-881.04l0 -2332.3c39.23,-16.06 75.96,-39.96 107.73,-71.73l2786.91 -2786.91c128.54,-128.53 338.2,-128.53 466.73,0l2096.17 2096.17 237.09 237.09c128.54,128.53 338.2,128.53 466.73,0l666.6 -666.6c128.54,-128.53 338.2,-128.53 466.73,0l1753.57 1753.57c31.77,31.77 68.5,55.67 107.73,71.74zm665.33 -5694.97c0,-851.15 -695.23,-1546.37 -1546.38,-1546.37l-7393.91 0c-851.15,0 -1546.38,695.22 -1546.38,1546.37 0,2464.64 0,4929.28 0,7393.93 0,851.15 695.23,1546.37 1546.38,1546.37l7393.91 0c851.15,0 1546.38,-695.22 1546.38,-1546.37 0,-2464.64 0,-4929.28 0,-7393.93z" />
    <path fill="#373435"
        d="M6208.66 9911.35l-4320 0 0 666.66 4320 0c183.33,0 333.33,-150 333.33,-333.33l0 0c0,-183.33 -150,-333.33 -333.33,-333.33zm-2360 -1333.32l-1960 0 0 666.66 1960 0c183.33,0 333.33,-150 333.33,-333.33l0 0c0,-183.33 -150,-333.33 -333.33,-333.33z" />
</svg>