<svg width="16" height="16" viewBox="0 0 16 16" fill="none" xmlns="http://www.w3.org/2000/svg"
    style="margin: 0px 8px 0px -4px;">
    <path
        d="M15.8443 6.43316H15.1999V6.39996H7.99995V9.59994H12.5211C11.8615 11.4627 10.0891 12.7999 7.99995 12.7999C5.34917 12.7999 3.19998 10.6507 3.19998 7.99995C3.19998 5.34917 5.34917 3.19998 7.99995 3.19998C9.22354 3.19998 10.3367 3.66158 11.1843 4.41557L13.4471 2.15279C12.0183 0.821195 10.1071 0 7.99995 0C3.58198 0 0 3.58198 0 7.99995C0 12.4179 3.58198 15.9999 7.99995 15.9999C12.4179 15.9999 15.9999 12.4179 15.9999 7.99995C15.9999 7.46355 15.9447 6.93996 15.8443 6.43316Z"
        fill="#FFC107"></path>
    <path
        d="M0.922607 4.27637L3.55099 6.20396C4.26219 4.44317 5.98458 3.19998 8.00016 3.19998C9.22376 3.19998 10.3369 3.66158 11.1845 4.41557L13.4473 2.15279C12.0185 0.821195 10.1074 0 8.00016 0C4.92738 0 2.2626 1.73479 0.922607 4.27637Z"
        fill="#FF3D00"></path>
    <path
        d="M7.99988 15.9999C10.0663 15.9999 11.9439 15.2091 13.3635 13.9231L10.8875 11.8279C10.0843 12.4363 9.08588 12.7999 7.99988 12.7999C5.9191 12.7999 4.15231 11.4731 3.48671 9.62155L0.87793 11.6315C2.20192 14.2223 4.8907 15.9999 7.99988 15.9999Z"
        fill="#4CAF50"></path>
    <path
        d="M15.8444 6.43318H15.2V6.39998H8V9.59996H12.5212C12.2044 10.4948 11.6288 11.2663 10.8864 11.8283C10.8868 11.8279 10.8872 11.8279 10.8876 11.8275L13.3636 13.9227C13.1884 14.0819 16 11.9999 16 7.99997C16 7.46357 15.9448 6.93998 15.8444 6.43318Z"
        fill="#1976D2"></path>
</svg>