<svg id="Layer_1" data-name="Layer 1" xmlns="http://www.w3.org/2000/svg" viewBox="0 0 553.31 108.41"><defs><style>.cls-1{fill:#414042;}.cls-2{fill:#f7941d;}</style></defs><path class="cls-1" d="M154,39.28l-14.9,33.64h-3.51L120.67,39.28h3.84L137.39,68.5l13-29.22Z"/><path class="cls-1" d="M157.91,41.4a2.36,2.36,0,0,1-.72-1.73,2.32,2.32,0,0,1,.72-1.69,2.41,2.41,0,0,1,1.78-.72,2.51,2.51,0,0,1,1.78.7,2.23,2.23,0,0,1,.72,1.66,2.52,2.52,0,0,1-4.28,1.78Zm.05,6.24h3.41V72.92H158Z"/><path class="cls-1" d="M194,37.26V72.92h-3.27v-5a10.41,10.41,0,0,1-4.06,3.9,12,12,0,0,1-5.69,1.34,12.82,12.82,0,0,1-6.44-1.63A11.68,11.68,0,0,1,170,67a14.5,14.5,0,0,1,0-13.36,11.54,11.54,0,0,1,4.52-4.54,13,13,0,0,1,6.44-1.61,12.06,12.06,0,0,1,5.55,1.27,10.59,10.59,0,0,1,4.06,3.73V37.26ZM186,68.91a8.76,8.76,0,0,0,3.36-3.49,11.35,11.35,0,0,0,0-10.28A8.67,8.67,0,0,0,186,51.66a10,10,0,0,0-9.61,0A8.63,8.63,0,0,0,173,55.14a11.44,11.44,0,0,0,0,10.28,8.72,8.72,0,0,0,3.37,3.49,10.07,10.07,0,0,0,9.61,0Z"/><path class="cls-1" d="M225.48,61.34H204.33a9,9,0,0,0,3,6.37,10.08,10.08,0,0,0,6.92,2.42,10.88,10.88,0,0,0,4.32-.84A9.47,9.47,0,0,0,222,66.82L223.94,69a10.77,10.77,0,0,1-4.21,3.07,14.11,14.11,0,0,1-5.55,1.06,14,14,0,0,1-6.89-1.66,11.83,11.83,0,0,1-4.69-4.59,13.07,13.07,0,0,1-1.68-6.63,13.61,13.61,0,0,1,1.61-6.63A11.61,11.61,0,0,1,207,49.09a13,13,0,0,1,12.62,0,11.57,11.57,0,0,1,4.37,4.54,13.62,13.62,0,0,1,1.58,6.65Zm-18.34-8.63a9.19,9.19,0,0,0-2.81,6.08h17.93a9.2,9.2,0,0,0-2.82-6.08,9.28,9.28,0,0,0-12.3,0Z"/><path class="cls-1" d="M236.24,71.5a12,12,0,0,1-4.61-4.59,13.85,13.85,0,0,1,0-13.26,11.88,11.88,0,0,1,4.61-4.56,14,14,0,0,1,13.17,0A11.77,11.77,0,0,1,254,53.65a14.15,14.15,0,0,1,0,13.26,11.91,11.91,0,0,1-4.59,4.59,13.89,13.89,0,0,1-13.17,0Zm11.41-2.59A8.52,8.52,0,0,0,251,65.42a11.61,11.61,0,0,0,0-10.28,8.43,8.43,0,0,0-3.34-3.48,10.1,10.1,0,0,0-9.66,0,8.67,8.67,0,0,0-3.36,3.48,11.35,11.35,0,0,0,0,10.28A8.76,8.76,0,0,0,238,68.91a10.17,10.17,0,0,0,9.66,0Z"/><path class="cls-1" d="M284,65.71H268.39l-3,7.21h-8l15-33.64h7.68l15.05,33.64H287Zm-2.45-5.91-5.34-12.88L270.89,59.8Z"/><path class="cls-1" d="M300.3,72.51a16.42,16.42,0,0,1-4.9-2l2.5-5.38a16,16,0,0,0,4.18,1.8,17.64,17.64,0,0,0,4.8.7q4.75,0,4.76-2.36a1.66,1.66,0,0,0-1.3-1.59,18.91,18.91,0,0,0-4-.81,37.57,37.57,0,0,1-5.23-1.11,8,8,0,0,1-3.58-2.21A6.29,6.29,0,0,1,296,55a7.07,7.07,0,0,1,1.42-4.35,9.08,9.08,0,0,1,4.13-2.95A17.77,17.77,0,0,1,308,46.68a25.21,25.21,0,0,1,5.45.6,15.47,15.47,0,0,1,4.5,1.66l-2.5,5.33A15,15,0,0,0,308,52.35a7.58,7.58,0,0,0-3.61.68,2,2,0,0,0-1.2,1.73,1.71,1.71,0,0,0,1.3,1.68,23.28,23.28,0,0,0,4.13.91,43.33,43.33,0,0,1,5.19,1.13,7.74,7.74,0,0,1,3.51,2.19,6.2,6.2,0,0,1,1.49,4.42,6.8,6.8,0,0,1-1.44,4.27,9.18,9.18,0,0,1-4.21,2.91,18.7,18.7,0,0,1-6.56,1A25.05,25.05,0,0,1,300.3,72.51Z"/><path class="cls-1" d="M325.82,72.51a16.61,16.61,0,0,1-4.91-2l2.5-5.38a16.29,16.29,0,0,0,4.18,1.8,17.77,17.77,0,0,0,4.81.7q4.75,0,4.76-2.36a1.66,1.66,0,0,0-1.3-1.59,18.91,18.91,0,0,0-4-.81,38.08,38.08,0,0,1-5.24-1.11,8.09,8.09,0,0,1-3.58-2.21A6.28,6.28,0,0,1,321.54,55,7.07,7.07,0,0,1,323,50.69a9.08,9.08,0,0,1,4.13-2.95,17.77,17.77,0,0,1,6.42-1.06,25.21,25.21,0,0,1,5.45.6,15.29,15.29,0,0,1,4.49,1.66L341,54.27a14.89,14.89,0,0,0-7.44-1.92,7.55,7.55,0,0,0-3.61.68,2,2,0,0,0-1.2,1.73,1.71,1.71,0,0,0,1.3,1.68,23.06,23.06,0,0,0,4.13.91,43.78,43.78,0,0,1,5.19,1.13,7.74,7.74,0,0,1,3.51,2.19,6.2,6.2,0,0,1,1.49,4.42,6.8,6.8,0,0,1-1.44,4.27,9.23,9.23,0,0,1-4.21,2.91,18.7,18.7,0,0,1-6.56,1A25.05,25.05,0,0,1,325.82,72.51Z"/><path class="cls-1" d="M349.32,42.26a4.07,4.07,0,0,1,0-6,4.74,4.74,0,0,1,3.36-1.2A4.84,4.84,0,0,1,356,36.25a3.69,3.69,0,0,1,1.3,2.89,4.07,4.07,0,0,1-1.3,3.1,5.27,5.27,0,0,1-6.72,0Zm-.39,4.81h7.5V72.92h-7.5Z"/><path class="cls-1" d="M365.8,72.51a16.42,16.42,0,0,1-4.9-2l2.5-5.38a16,16,0,0,0,4.18,1.8,17.64,17.64,0,0,0,4.8.7q4.75,0,4.76-2.36a1.66,1.66,0,0,0-1.3-1.59,18.91,18.91,0,0,0-4-.81,37.57,37.57,0,0,1-5.23-1.11A8,8,0,0,1,363,59.56,6.29,6.29,0,0,1,361.52,55a7.07,7.07,0,0,1,1.42-4.35,9.08,9.08,0,0,1,4.13-2.95,17.77,17.77,0,0,1,6.42-1.06,25.21,25.21,0,0,1,5.45.6,15.47,15.47,0,0,1,4.5,1.66l-2.5,5.33a15,15,0,0,0-7.45-1.92,7.58,7.58,0,0,0-3.61.68,2,2,0,0,0-1.2,1.73,1.71,1.71,0,0,0,1.3,1.68,23.28,23.28,0,0,0,4.13.91,43.33,43.33,0,0,1,5.19,1.13,7.74,7.74,0,0,1,3.51,2.19,6.2,6.2,0,0,1,1.49,4.42,6.8,6.8,0,0,1-1.44,4.27,9.18,9.18,0,0,1-4.21,2.91,18.7,18.7,0,0,1-6.56,1A25.05,25.05,0,0,1,365.8,72.51Z"/><path class="cls-1" d="M405.59,71.67a7.57,7.57,0,0,1-2.72,1.23,13.79,13.79,0,0,1-3.38.41q-4.62,0-7.14-2.36T389.83,64V53.41h-4V47.64h4V41.35h7.49v6.29h6.44v5.77h-6.44V63.93a3.56,3.56,0,0,0,.84,2.53,3.15,3.15,0,0,0,2.38.89,4.81,4.81,0,0,0,3-1Z"/><path class="cls-1" d="M429.47,49.54c2.15,1.91,3.22,4.78,3.22,8.63V72.92h-7V69.7c-1.41,2.4-4,3.61-7.88,3.61a12.29,12.29,0,0,1-5.17-1,7.79,7.79,0,0,1-3.34-2.79,7.25,7.25,0,0,1-1.15-4,6.74,6.74,0,0,1,2.71-5.67q2.72-2.07,8.39-2.07h6A4.79,4.79,0,0,0,423.71,54a6.59,6.59,0,0,0-4.47-1.32,13.11,13.11,0,0,0-4.06.65A10.84,10.84,0,0,0,411.79,55l-2.69-5.23a16,16,0,0,1,5.07-2.31,22.46,22.46,0,0,1,6.08-.82Q426.25,46.68,429.47,49.54Zm-6.39,17.83a4.91,4.91,0,0,0,2.12-2.62V62.11h-5.15q-4.6,0-4.61,3a2.7,2.7,0,0,0,1.13,2.28,5.09,5.09,0,0,0,3.1.84A6.54,6.54,0,0,0,423.08,67.37Z"/><path class="cls-1" d="M462.94,49.57q3,2.88,3,8.55v14.8h-7.5V59.27a6.78,6.78,0,0,0-1.34-4.59,5,5,0,0,0-3.9-1.51,5.94,5.94,0,0,0-4.51,1.75A7.24,7.24,0,0,0,447,60.14V72.92h-7.49V47.07h7.16v3a9.94,9.94,0,0,1,3.7-2.52,12.92,12.92,0,0,1,4.85-.89A10.6,10.6,0,0,1,462.94,49.57Z"/><path class="cls-1" d="M489.35,71.67a7.57,7.57,0,0,1-2.72,1.23,13.79,13.79,0,0,1-3.38.41q-4.62,0-7.14-2.36T473.59,64V53.41h-4V47.64h4V41.35h7.49v6.29h6.44v5.77h-6.44V63.93a3.52,3.52,0,0,0,.85,2.53,3.11,3.11,0,0,0,2.37.89,4.81,4.81,0,0,0,3-1Z"/><path class="cls-1" d="M493.58,72a4.56,4.56,0,0,1-1.35-3.36,4.38,4.38,0,0,1,1.35-3.34,4.93,4.93,0,0,1,6.63,0,4.38,4.38,0,0,1,1.35,3.34A4.56,4.56,0,0,1,500.21,72a4.75,4.75,0,0,1-6.63,0Z"/><path class="cls-1" d="M530.87,65.71H515.25l-3,7.21h-8l15-33.64H527l15,33.64h-8.17Zm-2.45-5.91-5.34-12.88L517.75,59.8Z"/><path class="cls-1" d="M545.53,39.28h7.78V72.92h-7.78Z"/><path class="cls-2" d="M90.05,94.11a8.48,8.48,0,0,0-10.66-1.32l-4.77-5.17a37.11,37.11,0,0,0,0-52.89L71.7,37.59c5.57,5,9.09,13.62,9.76,21a32.84,32.84,0,0,1-9.76,26.1h0l0,0,0,0L66.9,80a26.51,26.51,0,0,0,0-37.62l4.8-4.78A33.59,33.59,0,0,0,51.21,28l.08-4.2a33.59,33.59,0,0,1,22.07,9.72l2.9-2.88a37.85,37.85,0,0,0-24.84-10.9l.09-2.93a8.46,8.46,0,1,0-3.31-.1l-.32,7a37.9,37.9,0,0,0-26.72,11l2.89,2.86a33.7,33.7,0,0,1,23.81-9.75h0v6.74a26.91,26.91,0,0,0-19,7.78l-4.83-4.78A33.09,33.09,0,0,0,21.8,82.27l-3.14,3.11A36,36,0,0,1,20,35.55l-3.15-3.14a40.52,40.52,0,0,0-1.34,56.13l-2,2A8.73,8.73,0,1,0,16,92.92l5.21-5.26A37.89,37.89,0,0,0,47.88,98.57V94.51a33.67,33.67,0,0,1-23.83-9.77h0l0,0,0,0L28.88,80a27,27,0,0,0,19,7.78v6.74a33.57,33.57,0,0,0,21.38-7.57l2.88,3a33.7,33.7,0,0,1-22.61,8.61v4.08A37.92,37.92,0,0,0,75,92.91l2,2.16a8.47,8.47,0,1,0,13-1ZM13,102a6,6,0,1,1,0-8.5A6,6,0,0,1,13,102ZM44.29,8.29a5.83,5.83,0,1,1,5.64,6A5.83,5.83,0,0,1,44.29,8.29ZM56.4,64.19a120.37,120.37,0,0,1-10.92,6.3,3.51,3.51,0,0,1-5.22-3c0-3.15,0-9.46,0-12.61a3.52,3.52,0,0,1,5.22-3c2.8,1.43,8.26,4.59,10.92,6.31A3.55,3.55,0,0,1,56.4,64.19Zm31.54,40a5.82,5.82,0,1,1,.2-8.23A5.84,5.84,0,0,1,87.94,104.16Z"/></svg>